<svg width="190" height="40" viewBox="0 0 190 40" fill="none" xmlns="http://www.w3.org/2000/svg">
    <g clip-path="url(#cv0wgooeoa)" fill="#fff">
        <path d="M178.522 7.517c-6.332 0-11.48 5.223-11.48 11.64v20.841h3.859V27.855a11.343 11.343 0 0 0 7.621 2.945c6.33 0 11.478-5.223 11.478-11.642 0-6.42-5.148-11.64-11.478-11.64zm0 19.37c-4.203 0-7.621-3.467-7.621-7.73 0-4.262 3.418-7.727 7.621-7.727s7.62 3.467 7.62 7.728c0 4.26-3.417 7.73-7.62 7.73zM152.971 7.517c-6.328 0-11.478 5.223-11.478 11.64 0 6.418 5.15 11.643 11.478 11.643 2.925 0 5.594-1.115 7.623-2.945V30.8h3.857V19.16c0-6.42-5.148-11.64-11.481-11.64l.001-.003zm0 19.37c-4.201 0-7.62-3.467-7.62-7.73 0-4.262 3.419-7.727 7.62-7.727 4.202 0 7.623 3.467 7.623 7.728 0 4.26-3.418 7.73-7.623 7.73zM139.897 16.678c-1.116-5.256-5.732-9.208-11.244-9.208-6.342 0-11.501 5.232-11.501 11.664 0 .899.103 1.774.295 2.616l-11.278 4.671V0h-3.857v27.852c0 .982.479 1.897 1.281 2.447.802.55 1.817.657 2.725.287l12.615-5.225c2.042 3.266 5.633 5.439 9.72 5.439 5.265 0 9.704-3.611 11.065-8.514h-4.114c-1.191 2.695-3.851 4.578-6.953 4.578-2.461 0-4.645-1.19-6.038-3.026l17.282-7.158.002-.002zm-18.779 3.55a7.87 7.87 0 0 1-.086-1.094c0-4.268 3.412-7.728 7.621-7.728 2.522 0 4.749 1.245 6.135 3.159l-13.67 5.662v.002zM37.01 10.162c2.507 0 4.766 1.06 6.377 2.754l1.749-1.975c-2.08-2.116-4.955-3.429-8.126-3.429-6.327 0-11.476 5.221-11.476 11.638 0 6.418 5.149 11.639 11.477 11.639 3.143 0 5.995-1.29 8.07-3.373l-1.798-1.912a8.771 8.771 0 0 1-6.273 2.638c-4.895 0-8.864-4.025-8.864-8.99s3.969-8.99 8.864-8.99zM100.094 9.854V7.47h-6.932V1.926h-2.577V7.47h-4.991v2.384h4.99v15.338c0 1.846.505 3.197 1.545 4.13 1.053.942 2.639 1.421 4.716 1.421.639 0 1.358-.052 2.14-.158.359-.049.7-.108 1.017-.18V27.95c-.254.064-.5.117-.737.16-.552.102-1.182.153-1.87.153-1.45 0-2.49-.322-3.184-.986-.696-.666-1.049-1.73-1.049-3.166V9.854h6.932zM23.084 7.517h-2.578v23.274h2.578V7.517z"/>
        <path d="M0 2.384h10.252V30.79h2.58V2.384h10.251V0H0v2.384zM64.102 7.517H60.97L49.724 17.845V.013h-2.577V30.79h2.577V19.86l11.063 10.93h3.7L52.114 18.599 64.102 7.517z"/>
        <path d="m85.36 16.059-.022-.011c-1.343-4.916-5.79-8.536-11.058-8.536-6.328 0-11.476 5.221-11.476 11.638 0 6.418 5.148 11.639 11.476 11.639 4.898 0 9.085-3.128 10.73-7.518h-2.859c-1.473 2.89-4.443 4.87-7.873 4.87-3.22 0-6.03-1.75-7.583-4.352l.011-.004 18.655-7.726zm-19.65 5.315-.008.017a9.14 9.14 0 0 1-.288-2.24c0-4.966 3.968-8.99 8.864-8.99 3.276 0 6.126 1.81 7.658 4.49L65.71 21.371v.002z"/>
    </g>
    <defs>
        <clipPath id="cv0wgooeoa">
            <path fill="#fff" d="M0 0h190v40H0z"/>
        </clipPath>
    </defs>
</svg>
